<?xml version="1.0" encoding="utf-8"?>
<!-- Generator: Adobe Illustrator 21.0.0, SVG Export Plug-In . SVG Version: 6.00 Build 0)  -->
<svg version="1.1" id="Layer_1" xmlns="http://www.w3.org/2000/svg" xmlns:xlink="http://www.w3.org/1999/xlink" x="0px" y="0px"
	 viewBox="0 0 512 512" style="enable-background:new 0 0 512 512;" xml:space="preserve">
<style type="text/css">
	.st0{fill:#B3B3B3;}
	.st1{fill:#979797;}
	.st2{fill:#F0F0F0;}
	.st3{fill:#0052B4;}
	.st4{fill:#D80027;}
	.st5{fill:#C7C7C7;}
</style>
<g>
	<path class="st0" d="M434.4,110.7C401.2,45.9,334.4,0,256,0v101.3c55.5,0,100.6,43.7,100.6,99.2c0,54.8-45.5,102-100.6,102.1V512
		c70.6-73.6,152-154.5,187.5-251.4C461.3,212.1,458,156.5,434.4,110.7z"/>
	<path class="st1" d="M68.5,260.6C104.1,357.5,185.4,438.4,256,512V302.5c-55.1,0-100.6-47.2-100.6-102.1
		c0-55.5,45.1-99.1,100.6-99.2V0C177.6,0,110.8,45.9,77.6,110.7C54,156.5,50.7,212.1,68.5,260.6z"/>
	<circle class="st2" cx="256" cy="198.8" r="160"/>
	<path class="st3" d="M406,254.4c6.4-17.3,10-36.1,10-55.7s-3.5-38.3-10-55.7H106c-6.4,17.3-10,36.1-10,55.7s3.5,38.3,10,55.7
		l150,13.9L406,254.4z"/>
	<path class="st4" d="M256,358.8c68.8,0,127.4-43.4,150-104.3H106C128.6,315.4,187.2,358.8,256,358.8z"/>
	<path class="st5" d="M255.9,21.7c-73.7,0-141.5,47.6-166.6,116.8c-25.3,69.8-3.1,149.8,54,197.1c57.2,47.3,140.4,53.6,204,15.1
		c63.6-38.5,97.2-114.7,82.3-187.6c-14.7-71.4-74-128-146.1-139.3C274.4,22.4,265.1,21.7,255.9,21.7 M398.6,263.2
		c-30.2,67-105.7,104.8-177.5,88.4c-55.2-12.6-100.4-55.8-115.8-110.2c-15.7-55.7,1.3-116.8,43.4-156.4
		c45.5-42.9,114.2-54.6,171.3-28.8c68.2,30.8,106,108.1,87.7,180.8C405.5,246,402.4,254.7,398.6,263.2
		C396.5,267.8,400.1,259.7,398.6,263.2"/>
</g>
</svg>
