<?xml version="1.0" encoding="utf-8"?>
<!-- Generator: Adobe Illustrator 21.0.0, SVG Export Plug-In . SVG Version: 6.00 Build 0)  -->
<svg version="1.1" id="Capa_1" xmlns="http://www.w3.org/2000/svg" xmlns:xlink="http://www.w3.org/1999/xlink" x="0px" y="0px"
	 viewBox="0 0 511 511" style="enable-background:new 0 0 511 511;" xml:space="preserve">
<style type="text/css">
	.st0{fill:#FFFFFF;}
	.st1{fill:#FF6600;}
</style>
<path class="st0" d="M431.5,496H431v-96.5c0-0.1,0-0.1,0-0.2c0-0.2,0-0.3,0-0.5c0-0.1,0-0.2,0-0.4c0-0.1,0-0.2-0.1-0.4
	c0-0.1-0.1-0.3-0.1-0.4c0-0.1,0-0.2-0.1-0.3c0-0.1-0.1-0.3-0.1-0.4c0-0.1-0.1-0.2-0.1-0.3c-0.1-0.1-0.1-0.3-0.2-0.4
	c0-0.1-0.1-0.2-0.1-0.3c-0.1-0.1-0.1-0.2-0.2-0.3c-0.1-0.1-0.1-0.2-0.2-0.3c-0.1-0.1-0.1-0.2-0.2-0.3c-0.1-0.1-0.2-0.2-0.2-0.3
	c-0.1-0.1-0.1-0.2-0.2-0.2c-0.1-0.1-0.2-0.2-0.3-0.3c-0.1-0.1-0.1-0.1-0.2-0.2c-0.1-0.1-0.2-0.2-0.3-0.3c-0.1-0.1-0.2-0.2-0.3-0.2
	c-0.1-0.1-0.2-0.1-0.3-0.2c-0.1-0.1-0.3-0.2-0.4-0.2c-0.1,0-0.1-0.1-0.2-0.1l-56-32c-1.1-0.6-2.4-1-3.7-1H311v-9h0.5
	c2.8,0,5.3-1.5,6.6-4s1.2-5.4-0.4-7.7l-14.8-22.2L295.3,103h0.2c4.1,0,7.5-3.4,7.5-7.5s-3.4-7.5-7.5-7.5H287V39.5
	c0-14.8-10.2-27.2-24-30.6V7.5c0-4.1-3.4-7.5-7.5-7.5S248,3.4,248,7.5v1.4c-13.8,3.4-24,15.8-24,30.6V88h-8.5
	c-4.1,0-7.5,3.4-7.5,7.5s3.4,7.5,7.5,7.5h0.2l-7.6,214.1l-14.8,22.2c-1.5,2.3-1.7,5.3-0.4,7.7c1.3,2.4,3.8,4,6.6,4h0.5v9h-56.5
	c-1.3,0-2.6,0.3-3.7,1l-56,32c-0.1,0-0.1,0.1-0.2,0.1c-0.1,0.1-0.3,0.2-0.4,0.2c-0.1,0.1-0.2,0.1-0.3,0.2c-0.1,0.1-0.2,0.1-0.3,0.2
	c-0.1,0.1-0.2,0.2-0.3,0.3c-0.1,0.1-0.1,0.1-0.2,0.2c-0.1,0.1-0.2,0.2-0.3,0.3c-0.1,0.1-0.1,0.1-0.2,0.2c-0.1,0.1-0.2,0.2-0.2,0.3
	c-0.1,0.1-0.1,0.2-0.2,0.3c-0.1,0.1-0.1,0.2-0.2,0.3c-0.1,0.1-0.1,0.2-0.2,0.3c-0.1,0.1-0.1,0.2-0.1,0.3c-0.1,0.1-0.1,0.3-0.2,0.4
	c0,0.1-0.1,0.2-0.1,0.3c0,0.1-0.1,0.3-0.1,0.4c0,0.1-0.1,0.2-0.1,0.3c0,0.1-0.1,0.3-0.1,0.4c0,0.1,0,0.2-0.1,0.4c0,0.1,0,0.2,0,0.4
	c0,0.2,0,0.3,0,0.5c0,0.1,0,0.1,0,0.2V496h-0.5c-4.1,0-7.5,3.4-7.5,7.5s3.4,7.5,7.5,7.5h352c4.1,0,7.5-3.4,7.5-7.5
	S435.6,496,431.5,496z M311,407h105v89H311V407z M365.5,375l29.8,17H311v-17H365.5z M229.9,127H248v185h-24.7L229.9,127z M281.1,127
	l6.6,185H263V127H281.1z M213.5,336l6-9h72l6,9H213.5z M239,64V47h9v17H239z M263,47h9v17h-9V47z M255.5,23c6.4,0,11.9,3.7,14.7,9
	h-29.4C243.6,26.7,249.1,23,255.5,23z M239,79h33v9h-33V79z M280.3,103l0.3,9h-50.2l0.3-9H280.3z M296,351v145h-81V351H296z
	 M145.5,375H200v17h-84.3L145.5,375z M95,407h105v89H95V407z"/>
<path class="st1" d="M119.5,416c-4.1,0-7.5,3.4-7.5,7.5v16c0,4.1,3.4,7.5,7.5,7.5s7.5-3.4,7.5-7.5v-16
	C127,419.4,123.6,416,119.5,416z"/>
<path class="st1" d="M119.5,456c-4.1,0-7.5,3.4-7.5,7.5v16c0,4.1,3.4,7.5,7.5,7.5s7.5-3.4,7.5-7.5v-16
	C127,459.4,123.6,456,119.5,456z"/>
<path class="st1" d="M151.5,416c-4.1,0-7.5,3.4-7.5,7.5v16c0,4.1,3.4,7.5,7.5,7.5s7.5-3.4,7.5-7.5v-16
	C159,419.4,155.6,416,151.5,416z"/>
<path class="st1" d="M151.5,456c-4.1,0-7.5,3.4-7.5,7.5v16c0,4.1,3.4,7.5,7.5,7.5s7.5-3.4,7.5-7.5v-16
	C159,459.4,155.6,456,151.5,456z"/>
<path class="st1" d="M183.5,416c-4.1,0-7.5,3.4-7.5,7.5v16c0,4.1,3.4,7.5,7.5,7.5s7.5-3.4,7.5-7.5v-16
	C191,419.4,187.6,416,183.5,416z"/>
<path class="st1" d="M183.5,456c-4.1,0-7.5,3.4-7.5,7.5v16c0,4.1,3.4,7.5,7.5,7.5s7.5-3.4,7.5-7.5v-16
	C191,459.4,187.6,456,183.5,456z"/>
<path class="st1" d="M327.5,416c-4.1,0-7.5,3.4-7.5,7.5v16c0,4.1,3.4,7.5,7.5,7.5s7.5-3.4,7.5-7.5v-16
	C335,419.4,331.6,416,327.5,416z"/>
<path class="st1" d="M327.5,456c-4.1,0-7.5,3.4-7.5,7.5v16c0,4.1,3.4,7.5,7.5,7.5s7.5-3.4,7.5-7.5v-16
	C335,459.4,331.6,456,327.5,456z"/>
<path class="st1" d="M359.5,416c-4.1,0-7.5,3.4-7.5,7.5v16c0,4.1,3.4,7.5,7.5,7.5s7.5-3.4,7.5-7.5v-16
	C367,419.4,363.6,416,359.5,416z"/>
<path class="st1" d="M359.5,456c-4.1,0-7.5,3.4-7.5,7.5v16c0,4.1,3.4,7.5,7.5,7.5s7.5-3.4,7.5-7.5v-16
	C367,459.4,363.6,456,359.5,456z"/>
<path class="st1" d="M391.5,416c-4.1,0-7.5,3.4-7.5,7.5v16c0,4.1,3.4,7.5,7.5,7.5s7.5-3.4,7.5-7.5v-16
	C399,419.4,395.6,416,391.5,416z"/>
<path class="st1" d="M391.5,456c-4.1,0-7.5,3.4-7.5,7.5v16c0,4.1,3.4,7.5,7.5,7.5s7.5-3.4,7.5-7.5v-16
	C399,459.4,395.6,456,391.5,456z"/>
<path class="st1" d="M255.5,407c4.1,0,7.5-3.4,7.5-7.5v-8c0-4.1-3.4-7.5-7.5-7.5s-7.5,3.4-7.5,7.5v8C248,403.6,251.4,407,255.5,407z
	"/>
<path class="st1" d="M255.5,455c4.1,0,7.5-3.4,7.5-7.5v-8c0-4.1-3.4-7.5-7.5-7.5s-7.5,3.4-7.5,7.5v8C248,451.6,251.4,455,255.5,455z
	"/>
</svg>
