<?xml version="1.0" encoding="utf-8"?>
<!-- Generator: Adobe Illustrator 21.0.0, SVG Export Plug-In . SVG Version: 6.00 Build 0)  -->
<svg version="1.1" id="Layer_1" xmlns="http://www.w3.org/2000/svg" xmlns:xlink="http://www.w3.org/1999/xlink" x="0px" y="0px"
	 viewBox="0 0 512 512" style="enable-background:new 0 0 512 512;" xml:space="preserve">
<style type="text/css">
	.st0{fill:#FFFFFF;}
	.st1{fill:#FF6600;}
</style>
<g>
	<path class="st0" d="M238.4,451.9c-124.2,0-225.3-101.1-225.3-225.3S114.1,1.2,238.4,1.2c124.3,0,225.3,101.1,225.3,225.3
		S362.6,451.9,238.4,451.9z M238.4,26C127.8,26,37.8,116,37.8,226.5s90,200.6,200.5,200.6s200.6-90,200.6-200.6S348.9,26,238.4,26z"
		/>
	<polygon class="st0" points="472.4,512 369.1,408.6 389.1,393.6 490,494.5 	"/>
	<polygon class="st1" points="248,315.5 113.2,172.7 152.4,135.7 246.9,235.8 458.7,0 498.9,36 	"/>
</g>
</svg>
