<?xml version="1.0" encoding="utf-8"?>
<!-- Generator: Adobe Illustrator 21.0.0, SVG Export Plug-In . SVG Version: 6.00 Build 0)  -->
<svg version="1.1" id="Layer_1" xmlns="http://www.w3.org/2000/svg" xmlns:xlink="http://www.w3.org/1999/xlink" x="0px" y="0px"
	 viewBox="0 0 357 303" style="enable-background:new 0 0 357 303;" xml:space="preserve">
<style type="text/css">
	.st0{fill:#FFFFFF;}
	.st1{fill:#324A5E;}
	.st2{fill:#FF7058;}
</style>
<path class="st0" d="M314.6,14.3c-3.3-2.8-8.3-2.3-10.9,1.1l-55.6,72.7c-2.6,3.4-1.8,8.4,1.8,10.8c3.1,2.1,6.2,4,9.4,5.7l63.8-82.5
	C320.4,19.5,317.6,16.8,314.6,14.3z"/>
<path class="st1" d="M152.9,294.3C270.3,247,329.8,134.8,345.5,100.9c1.8-2.8,3.1-5.9,4-9.1c0.2-0.5,0.3-0.7,0.3-0.7l-0.1-0.1
	c5.2-19.9-5.1-46.5-26.7-68.8l-63.8,82.5c8.8,4.9,17.8,8.6,26.5,10.9c-24.2,36.1-62.7,82.8-117.4,119.3c-2.4-9.1-6.2-18.5-11.4-27.8
	L74.3,271C100.4,296.5,132.4,306.5,152.9,294.3z"/>
<g>
	<path class="st0" d="M156.9,207.1c-1.7-2.9-3.5-5.9-5.4-8.8c-2.4-3.6-7.4-4.4-10.8-1.8L68,252.1c-3.4,2.6-4,7.7-1.1,10.9
		c2.4,2.8,4.9,5.4,7.5,7.9L156.9,207.1z"/>
	<path class="st0" d="M188.7,5.4H15.8c-3.9,0-7,3.1-7,7V128c0,3.9,3.1,7,7,7h116l56.7,39.4L173.7,135h15c3.9,0,7-3.1,7-7V12.4
		C195.7,8.5,192.5,5.4,188.7,5.4z"/>
</g>
<g>
	<rect x="34.4" y="54" class="st2" width="27.3" height="27.3"/>
	<rect x="83.6" y="54" class="st2" width="27.3" height="27.3"/>
	<rect x="132.8" y="54" class="st2" width="27.3" height="27.3"/>
</g>
</svg>
