<?xml version="1.0" encoding="utf-8"?>
<!-- Generator: Adobe Illustrator 21.0.0, SVG Export Plug-In . SVG Version: 6.00 Build 0)  -->
<svg version="1.1" id="Layer_1" xmlns="http://www.w3.org/2000/svg" xmlns:xlink="http://www.w3.org/1999/xlink" x="0px" y="0px"
	 viewBox="0 0 612.3 612.3" style="enable-background:new 0 0 612.3 612.3;" xml:space="preserve">
<style type="text/css">
	.st0{fill:none;stroke:#000000;stroke-width:32;stroke-miterlimit:10;}
</style>
<g id="XMLID_1_">
	<path id="XMLID_807_" d="M434.6,333.6c11.8,11.5,24.3,22.4,34.9,35.1c4.7,5.6,9.1,11.5,12.5,18c4.8,9.3,0.5,19.5-7.9,20.1l-51.9,0
		c-13.4,1.1-24.1-4.3-33-13.4c-7.2-7.3-13.8-15.1-20.7-22.7c-2.8-3.1-5.8-6-9.3-8.3c-7.1-4.6-13.2-3.2-17.3,4.2
		c-4.1,7.5-5.1,15.8-5.5,24.2c-0.6,12.2-4.2,15.4-16.5,16c-26.2,1.2-51.1-2.7-74.2-16c-20.4-11.7-36.2-28.1-49.9-46.8
		c-26.8-36.3-47.3-76.2-65.7-117.2c-4.1-9.2-1.1-14.2,9.1-14.4c16.9-0.3,33.8-0.3,50.8,0c6.9,0.1,11.4,4,14.1,10.5
		c9.2,22.5,20.4,43.9,34.4,63.8c3.7,5.3,7.6,10.6,13,14.3c6,4.1,10.6,2.8,13.4-3.9c1.8-4.2,2.6-8.8,3-13.4
		c1.3-15.7,1.5-31.3-0.8-46.9c-1.4-9.7-6.9-16-16.6-17.9c-5-0.9-4.2-2.8-1.8-5.6c4.2-4.9,8.1-7.9,15.9-7.9H323
		c9.2,1.8,11.3,6,12.5,15.3l0.1,65.1c-0.1,3.6,1.8,14.3,8.3,16.6c5.2,1.7,8.6-2.5,11.7-5.7c14-14.9,24.1-32.5,33-50.7
		c4-8,7.4-16.3,10.7-24.7c2.5-6.2,6.3-9.2,13.3-9.1l56.4,0.1c1.7,0,3.4,0,5,0.3c9.5,1.6,12.1,5.7,9.2,15
		c-4.6,14.6-13.6,26.7-22.4,38.9c-9.4,13-19.5,25.6-28.8,38.7C423.3,317.2,424,323.2,434.6,333.6L434.6,333.6z"/>
</g>
<circle class="st0" cx="306.2" cy="306.3" r="289.8"/>
</svg>
